/* XPM */
static char *aptosid_manual___[] = {
/* columns rows colors chars-per-pixel */
"16 16 169 2",
"   c #521414",
".  c #5C1616",
"X  c #6B1A1A",
"o  c #761E1E",
"O  c #682F2F",
"+  c #7F2C2C",
"@  c #6B3333",
"#  c #714141",
"$  c #7C5252",
"%  c #821E1E",
"&  c #881C1C",
"*  c #8E1C1C",
"=  c #911B1B",
"-  c #901D1D",
";  c #901E1E",
":  c #941F1F",
">  c #971E1E",
",  c #961F1F",
"<  c #9B1D1D",
"1  c #991E1E",
"2  c #9C1D1D",
"3  c #A51B1B",
"4  c #A01C1C",
"5  c #A41C1C",
"6  c #A71C1C",
"7  c #822323",
"8  c #8F2020",
"9  c #992626",
"0  c #952828",
"q  c #952B2B",
"w  c #972F2F",
"e  c #8A3232",
"r  c #823C3C",
"t  c #843D3C",
"y  c #A02727",
"u  c #A92020",
"i  c #AA2323",
"p  c #AB2323",
"a  c #AB2727",
"s  c #AC2524",
"d  c #A62D2D",
"f  c #AA2F2F",
"g  c #AF2D2C",
"h  c #B12F2F",
"j  c #A63939",
"k  c #A53B39",
"l  c #B23131",
"z  c #B23535",
"x  c #B63939",
"c  c #B53B3B",
"v  c #B63C3C",
"b  c #B83A3A",
"n  c #BF3E3D",
"m  c #B9403F",
"M  c #944343",
"N  c #855C5C",
"B  c #AC4949",
"V  c #B24645",
"C  c #B64747",
"Z  c #B84140",
"A  c #BA4241",
"S  c #BA4342",
"D  c #BB4443",
"F  c #BA4645",
"G  c #BA4646",
"H  c #BC4645",
"J  c #B44848",
"K  c #B64E4E",
"L  c #BD4A49",
"P  c #BD4B4A",
"I  c #BF4F4E",
"U  c #BD504E",
"Y  c #B65252",
"T  c #BF5656",
"R  c #BF5757",
"E  c #BB5857",
"W  c #BC5C5C",
"Q  c #866161",
"!  c #8F7475",
"~  c #937070",
"^  c #9F7676",
"/  c #AB7F7F",
"(  c #BE7A7A",
")  c #C05352",
"_  c #C15756",
"`  c #C35A59",
"'  c #C75D5C",
"]  c #C7605F",
"[  c #C46262",
"{  c #C56666",
"}  c #C66767",
"|  c #C96260",
" . c #CC6866",
".. c #C76C6C",
"X. c #C86968",
"o. c #CE6B69",
"O. c #C96C6A",
"+. c #CF6D6B",
"@. c #C96D6D",
"#. c #D06D6B",
"$. c #D06E6C",
"%. c #CB7676",
"&. c #CE7877",
"*. c #C27979",
"=. c #C67C7C",
"-. c #CB7878",
";. c #CC7979",
":. c #CF7A79",
">. c #CE7C7C",
",. c #CF7D7D",
"<. c #D07977",
"1. c #D27877",
"2. c #D17D7B",
"3. c #A08080",
"4. c #A39494",
"5. c #AE9898",
"6. c #B8B4B4",
"7. c #D58988",
"8. c #D08F8F",
"9. c #D58D8D",
"0. c #D58F8F",
"q. c #D78F8F",
"w. c #CA9B9B",
"e. c #DA9292",
"r. c #D79B9B",
"t. c #D49C9C",
"y. c #D89998",
"u. c #DC9B9A",
"i. c #DA9C9B",
"p. c #DC9C9B",
"a. c #DE9D9B",
"s. c #D89C9C",
"d. c #DD9C9C",
"f. c #DE9D9C",
"g. c #DDA6A6",
"h. c #D6AFAF",
"j. c #C2B7B7",
"k. c #D1BFBE",
"l. c #E1B2B2",
"z. c #E7BFBF",
"x. c #CACACA",
"c. c #CCCDCD",
"v. c #CDCDCD",
"b. c #CECECE",
"n. c #CFCFCF",
"m. c #D3D3D3",
"M. c #D5D4D4",
"N. c #D8D8D8",
"B. c #D9D9D9",
"V. c #DBDBDB",
"C. c #DDDDDD",
"Z. c #E4C4C4",
"A. c #E7C5C5",
"S. c #E9C4C4",
"D. c #E7CBCB",
"F. c #EDD1D1",
"G. c #EED2D2",
"H. c #E7DFDF",
"J. c #E1E1E1",
"K. c #E7E7E7",
"L. c #E9E9E9",
"P. c #F4E3E3",
"I. c #F5E3E3",
"U. c #F5E4E4",
"Y. c #F5EAEA",
"T. c #FBF4F4",
"R. c #FEFCFC",
"E. c #FEFDFD",
"W. c None",
/* pixels */
"W.W.W.W.W.W.W.W.W.W.D P W.W.W.W.",
"W.E #.+.o. .| ' ] X.X.s.f W.W.W.",
"W.U 1.a.a.e.d.7.q.&.q.,.J W.W.W.",
"W.k +.a.u.:.2.:._ ` x l a W.W.W.",
"W.q n ) O.I I D m c z g u W.W.W.",
"W.7 b D Z Z Z ,...X.T -.3 W.W.W.",
"W.o Y x H 0.G.I.P.S.z.G.K = W.W.",
"W.X B h } g.R.T s 5 5 4 2 * W.W.",
"W.. 9 s s.I.:.p C W d 1 > * W.W.",
"W.  V [ s.l.s.T.A.t.Z.D.( 8 W.W.",
"W.W.P X.8.R.=.y 1 > > 0 h.t.W.W.",
"W.W.j %.Y.*.1 8 - & % + t 3.W.W.",
"W.W.w M ^ N ! 4.6.v.B.J.L.H.W.W.",
"W.W.e K.J.C.m.v.x.v.n.B.J.k.W.W.",
"W.W.r V.M.j.5.3.~ Q $ # @ W.W.W.",
"W.W.W.O W.W.W.W.W.W.W.W.W.W.W.W."
};
