/* XPM */
static char *aptosid_manual[] = {
/* columns rows colors chars-per-pixel */
"32 32 158 2",
"   c #441010",
".  c #4E1313",
"X  c #541515",
"o  c #5C1616",
"O  c #631818",
"+  c #6A1B1B",
"@  c #741C1C",
"#  c #7C1D1D",
"$  c #6E2828",
"%  c #722727",
"&  c #7C2121",
"*  c #7C2A2A",
"=  c #7A3232",
"-  c #7D3B3A",
";  c #7E4444",
":  c #8A1515",
">  c #821C1C",
",  c #8D1C1C",
"<  c #951F1F",
"1  c #9B1D1D",
"2  c #A41C1C",
"3  c #A91E1E",
"4  c #832222",
"5  c #8C2121",
"6  c #912323",
"7  c #9E2323",
"8  c #932A2A",
"9  c #982928",
"0  c #863635",
"q  c #8C3737",
"w  c #833837",
"e  c #843C3B",
"r  c #913636",
"t  c #9B3131",
"y  c #983C3C",
"u  c #A32424",
"i  c #AB2424",
"p  c #AD2827",
"a  c #A12C2C",
"s  c #AE2C2B",
"d  c #B22D2D",
"f  c #A33535",
"g  c #A83232",
"h  c #A43C3B",
"j  c #AB3939",
"k  c #B33433",
"l  c #B93332",
"z  c #B53837",
"x  c #B63B3B",
"c  c #B83D3D",
"v  c #9A423F",
"b  c #B9403F",
"n  c #874040",
"m  c #8A4C4C",
"M  c #9C4B4B",
"N  c #845453",
"B  c #8E5252",
"V  c #A94544",
"C  c #B44443",
"Z  c #BB4443",
"A  c #BD4847",
"S  c #B64D4D",
"D  c #BD4B4A",
"F  c #AF5252",
"G  c #AA5E5E",
"H  c #B65252",
"J  c #BE5251",
"K  c #BC5C5C",
"L  c #8B6B6B",
"P  c #976666",
"I  c #916A68",
"U  c #9B6C6C",
"Y  c #947778",
"T  c #9D7E7D",
"R  c #AC6161",
"E  c #AB6C6C",
"W  c #BB6464",
"Q  c #B06C6C",
"!  c #BD6B6A",
"~  c #BE7272",
"^  c #BB7B7B",
"/  c #C04847",
"(  c #C44D4B",
")  c #C1514F",
"_  c #C25453",
"`  c #C25857",
"'  c #C45A59",
"]  c #C95D5C",
"[  c #C6605F",
"{  c #CA615F",
"}  c #C56363",
"|  c #CB6362",
" . c #CD6866",
".. c #C56D6D",
"X. c #CD6B69",
"o. c #D56A67",
"O. c #D16D6B",
"+. c #CE716F",
"@. c #D1706E",
"#. c #CC7473",
"$. c #CD7877",
"%. c #CC7B7B",
"&. c #D07674",
"*. c #D27877",
"=. c #D07C7B",
"-. c #9B8888",
";. c #A58383",
":. c #AB8A8A",
">. c #B98484",
",. c #BF8F8F",
"<. c #AD9A98",
"1. c #ABA4A4",
"2. c #B8A3A3",
"3. c #BCAAAA",
"4. c #BDBEBE",
"5. c #CD8787",
"6. c #CF8E8E",
"7. c #D28483",
"8. c #D98380",
"9. c #D68C8B",
"0. c #D9908E",
"q. c #C29391",
"w. c #D49392",
"e. c #DA9594",
"r. c #D69A9A",
"t. c #DB9C9B",
"y. c #DCA09F",
"u. c #D4A3A3",
"i. c #DCA3A2",
"p. c #DEABAA",
"a. c #C9BEBC",
"s. c #D1B4B4",
"d. c #DAB0B0",
"f. c #E2ACAB",
"g. c #E4B0AF",
"h. c #E3B4B4",
"j. c #E6BBBB",
"k. c #D8C0BF",
"l. c #C6C6C6",
"z. c #CDC5C5",
"x. c #CBCBCB",
"c. c #D4D4D4",
"v. c #DBDBDB",
"b. c #E3C2C2",
"n. c #EAC4C3",
"m. c #EDCDCD",
"M. c #EED2D2",
"N. c #EEDEDE",
"B. c #F1D6D6",
"V. c #E2E2E2",
"C. c #EEE7E7",
"Z. c #EAEAEA",
"A. c #F5E3E3",
"S. c #F6EAEA",
"D. c #F3F3F3",
"F. c #F9F0F0",
"G. c #FEFEFE",
"H. c None",
/* pixels */
"H.H.H.H.H.H.H.H.H.H.H.H.H.H.H.H.H.H.H.H.H.H.H.H.H.H.H.H.H.H.H.H.",
"H.H.H.H.H.H.H.H.H.H.H.H.H.| { ] ' _ ) ( A Z Z ` z H.H.H.H.H.H.H.",
"H.H.H.7.@.@.@.@.O.O. .o. .{ ] ' _ _ D } #.b J h.k H.H.H.H.H.H.H.",
"H.H.h w.o.X.X.X. . .| O.&.]  .' _ 9.e.X.7.$.r.m.z H.H.H.H.H.H.H.",
"H.H.t ! ] *.t.0.e.g.f.t.B.7.g.g.$.j.7.' i.t.z 7.' u H.H.H.H.H.H.",
"H.H.8 V ) n.*.m.f.&.@.t.f.9.+.` t.9.7.w.i.$.9.h.%.i H.H.H.H.H.H.",
"H.H.8 V ( f.] m.e.h.t.9.f.*.i.f.] =.i._ ' z z z s i H.H.H.H.H.H.",
"H.H.5 X.( @.f.0.7.t.#.) ) ' D Z Z c c z k s s s s i H.H.H.H.H.H.",
"H.H.4 o.| ) ) ) 7.=.A Z D D D D A C C b b z z d i 3 H.H.H.H.H.H.",
"H.H.@ ` =.) ` J J ` ' ` D A Z c x z k k s s p i 3 3 1 H.H.H.H.H.",
"H.H.+ C 9.Z Z Z A Z Z Z b c Z r.f.i.i.z s s i 3 3 2 1 H.H.H.H.H.",
"H.H.o h ! c b b b b c x z _ j.J k d z b.J M.G.i.2 2 1 H.H.H.H.H.",
"H.H.X t V k c c x z f.n.%.A.h.h.h.m.A.G.G.G.G.G.r.2 1 H.H.H.H.H.",
"H.H.  8 9 d z z z #.d.` G.G.G.G.G.G.M.9.K h.F...j g 1 H.H.H.H.H.",
"H.H.H.8 f l d d d p.J m.G.G.g...Z i 3 2 2 2 2 2 1 1 1 H.H.H.H.H.",
"H.H.H.5 &./ d d s i.7.G.G.F.s i 3 3 2 2 2 2 1 2 1 1 < < H.H.H.H.",
"H.H.H.4 o. .p p p h.n.G.G.5.3 3 2 2 2 2 2 1 1 1 1 1 < < H.H.H.H.",
"H.H.H.# ` 5.3 i t.G.G.G.i.3 2 z [ 5.p.u.5.! a 1 1 6 6 5 H.H.H.H.",
"H.H.H.@ C K 3 r.%.G.G...2 #.A.G.G.G.G.G.G.G.G.d.F < 5 , H.H.H.H.",
"H.H.H.O h h 3 b.C G.G.W M.G.S.6.K j 7 a V ~ j.G.G.u.8 5 H.H.H.H.",
"H.H.H.o t 9 D $.S G.G.G.S...7 1 1 1 1 < < < < y b.G.N.y > H.H.H.",
"H.H.H.. 8 : } H j G.G.m.f 1 1 1 1 < < < < < 6 , 4 ^ G.N.r H.H.H.",
"H.H.H.H.5 h #.W u.G.b.9 1 1 1 < < < < < < , 5 5 4 , E s.>.H.H.H.",
"H.H.H.H.5 8.5.G.G.S.f 1 < < < 6 , , # # # * - N I T <.k.H.H.H.H.",
"H.H.H.H.5 o.^ R ,.M # * = ; N L -.1.4.l.l.x.c.v.v.V.Z.D.H.H.H.H.",
"H.H.H.H.4 ` Y 1.4.l.l.l.x.x.x.x.l.x.x.x.c.c.c.V.V.Z.Z.C.H.H.H.H.",
"H.H.H.H.@ F x.v.V.V.V.v.c.c.c.x.x.x.x.x.c.v.v.V.V.V.Z.k.H.H.H.H.",
"H.H.H.H.+ G v.V.v.v.v.c.c.x.x.l.l.l.x.l.l.l.x.c.v.V.V.q.H.H.H.H.",
"H.H.H.H.O E v.v.v.c.c.c.c.c.v.v.v.v.x.s.:.U B n e 0 q v H.H.H.H.",
"H.H.H.H.X E v.c.v.z.2.;.P m n = % + O X X H.H.H.H.H.H.H.H.H.H.H.",
"H.H.H.H.H.4 0 $ + o X H.H.H.H.H.H.H.H.H.H.H.H.H.H.H.H.H.H.H.H.H.",
"H.H.H.H.H.H.H.H.H.H.H.H.H.H.H.H.H.H.H.H.H.H.H.H.H.H.H.H.H.H.H.H."
};
