/* XPM */
static char * aptosid_manual_xpm[] = {
"32 32 476 2",
"  	c None",
". 	c #CB6664",
"+ 	c #CA615F",
"@ 	c #C75E5B",
"# 	c #C45857",
"$ 	c #C35553",
"% 	c #C1504F",
"& 	c #BF4C4B",
"* 	c #BD4846",
"= 	c #BA4342",
"- 	c #BB4746",
"; 	c #BF5353",
"> 	c #B33534",
", 	c #B74F4D",
"' 	c #D28785",
") 	c #D06F6D",
"! 	c #D0706E",
"~ 	c #D06E6C",
"{ 	c #CF6C6A",
"] 	c #CD6A68",
"^ 	c #CC6765",
"/ 	c #CB6462",
"( 	c #C96160",
"_ 	c #C75E5C",
": 	c #C65A58",
"< 	c #C45655",
"[ 	c #C25250",
"} 	c #C04E4C",
"| 	c #C76261",
"1 	c #CC7372",
"2 	c #B94040",
"3 	c #C05453",
"4 	c #E2B1B0",
"5 	c #B23232",
"6 	c #A53B3A",
"7 	c #D19493",
"8 	c #CD6866",
"9 	c #CE6B69",
"0 	c #CE6A68",
"a 	c #CD6967",
"b 	c #CA6361",
"c 	c #CC6A69",
"d 	c #CA6765",
"e 	c #C75D5B",
"f 	c #C65D5C",
"g 	c #C25352",
"h 	c #D99594",
"i 	c #D99595",
"j 	c #CA6D6C",
"k 	c #D28584",
"l 	c #D28484",
"m 	c #DDA2A2",
"n 	c #EFD3D3",
"o 	c #B43737",
"p 	c #9B3131",
"q 	c #BB6A69",
"r 	c #CA5C5A",
"s 	c #D48280",
"t 	c #E0A4A3",
"u 	c #D98F8E",
"v 	c #DC9896",
"w 	c #E7B7B6",
"x 	c #E4B0AF",
"y 	c #D58483",
"z 	c #FEFBFB",
"A 	c #E7B9B9",
"B 	c #F9EDED",
"C 	c #FAF2F2",
"D 	c #DA9796",
"E 	c #E7BBBB",
"F 	c #D07D7C",
"G 	c #C45B5A",
"H 	c #DCA0A0",
"I 	c #DEA5A5",
"J 	c #B43736",
"K 	c #D08282",
"L 	c #C05857",
"M 	c #AD2929",
"N 	c #942A2A",
"O 	c #A74746",
"P 	c #CA5755",
"Q 	c #E8BCBC",
"R 	c #CF7171",
"S 	c #EECECD",
"T 	c #CE716F",
"U 	c #E8BCBB",
"V 	c #F2D9D9",
"W 	c #D78D8C",
"X 	c #F3DDDD",
"Y 	c #DD9F9E",
"Z 	c #EBC8C8",
"` 	c #D48887",
" .	c #D28382",
"..	c #DC9E9E",
"+.	c #DB9F9E",
"@.	c #D28585",
"#.	c #D38A89",
"$.	c #E2B1B1",
"%.	c #CD7B7A",
"&.	c #AD2727",
"*.	c #902626",
"=.	c #A94141",
"-.	c #C54B49",
";.	c #E4B2B1",
">.	c #C65B5A",
",.	c #EBC6C6",
"'.	c #DB9594",
").	c #E4B1B1",
"!.	c #D99291",
"~.	c #DC9B9B",
"{.	c #F4DFDF",
"].	c #F2DBDA",
"^.	c #E3B0AF",
"/.	c #F3DEDD",
"(.	c #CE7978",
"_.	c #D1807F",
":.	c #DB9D9C",
"<.	c #C15857",
"[.	c #C15A5A",
"}.	c #B94645",
"|.	c #B33737",
"1.	c #AD2828",
"2.	c #AA2424",
"3.	c #8A2222",
"4.	c #CA6D6A",
"5.	c #C74F4E",
"6.	c #D07A79",
"7.	c #E3AEAE",
"8.	c #DD9C9B",
"9.	c #D58886",
"0.	c #E0A6A5",
"a.	c #D27E7D",
"b.	c #C04E4D",
"c.	c #BF4C4A",
"d.	c #BD4948",
"e.	c #BC4645",
"f.	c #BB4342",
"g.	c #B9403F",
"h.	c #B73C3B",
"i.	c #B53938",
"j.	c #B33333",
"k.	c #AF2E2E",
"l.	c #AD2B2B",
"m.	c #AE2C2B",
"n.	c #AD2C2C",
"o.	c #AB2323",
"p.	c #7F1F1F",
"q.	c #D16966",
"r.	c #CB6261",
"s.	c #C15150",
"t.	c #D38281",
"u.	c #BA4645",
"v.	c #B94443",
"w.	c #BB4948",
"x.	c #BC4E4D",
"y.	c #BB4B4A",
"z.	c #BA4948",
"A.	c #B84545",
"B.	c #B64241",
"C.	c #B63F3F",
"D.	c #B53E3E",
"E.	c #B53C3B",
"F.	c #B43939",
"G.	c #B02F2F",
"H.	c #AB2525",
"I.	c #A81E1E",
"J.	c #741C1C",
"K.	c #C35654",
"L.	c #CF7C7C",
"M.	c #C15352",
"N.	c #BF5453",
"O.	c #C05655",
"P.	c #C15656",
"Q.	c #C25857",
"R.	c #BF4F4E",
"S.	c #BB4544",
"T.	c #B83E3D",
"U.	c #B63B3A",
"V.	c #B63A39",
"W.	c #B23130",
"X.	c #B02E2D",
"Y.	c #AE2A2A",
"Z.	c #AC2726",
"`.	c #AA2222",
" +	c #A91F1F",
".+	c #A71B1B",
"++	c #A41C1C",
"@+	c #661919",
"#+	c #B24745",
"$+	c #D08F8E",
"%+	c #BC4544",
"&+	c #BB4443",
"*+	c #BA4140",
"=+	c #DB9F9F",
"-+	c #E0ADAD",
";+	c #DFA9A9",
">+	c #DFABAB",
",+	c #B84343",
"'+	c #AF2F2F",
")+	c #B53C3C",
"!+	c #A51B1B",
"~+	c #A21C1C",
"{+	c #591616",
"]+	c #A43A39",
"^+	c #BA6666",
"/+	c #BA3C3B",
"(+	c #B94140",
"_+	c #B83F3E",
":+	c #B73D3C",
"<+	c #BC4D4D",
"[+	c #B23231",
"}+	c #B12F2F",
"|+	c #B33838",
"1+	c #E7C0C0",
"2+	c #BC4F4E",
"3+	c #F1DBDB",
"4+	c #FFFFFF",
"5+	c #E0AFAF",
"6+	c #A92424",
"7+	c #A21B1B",
"8+	c #9F1B1B",
"9+	c #4F1313",
"0+	c #9A3030",
"a+	c #A84343",
"b+	c #B93433",
"c+	c #B83F3F",
"d+	c #E7C0BF",
"e+	c #CF7F7E",
"f+	c #F6E7E7",
"g+	c #E1B0B0",
"h+	c #E0ACAC",
"i+	c #E5B9B9",
"j+	c #EDCFCF",
"k+	c #FBF6F6",
"l+	c #FEFCFC",
"m+	c #E5BFBF",
"n+	c #A11F1F",
"o+	c #9E1C1C",
"p+	c #421010",
"q+	c #932929",
"r+	c #972A29",
"s+	c #B62C2B",
"t+	c #B43635",
"u+	c #D08181",
"v+	c #BD5150",
"w+	c #FCF8F8",
"x+	c #EED1D1",
"y+	c #D59292",
"z+	c #BF5858",
"A+	c #E3B7B7",
"B+	c #FCF7F7",
"C+	c #C16666",
"D+	c #AB3636",
"E+	c #AB3939",
"F+	c #9C1D1D",
"G+	c #A33635",
"H+	c #BA3232",
"I+	c #B23131",
"J+	c #B13130",
"K+	c #DDA5A5",
"L+	c #B53A3A",
"M+	c #ECCECE",
"N+	c #E2B3B3",
"O+	c #CD7D7D",
"P+	c #C15D5D",
"Q+	c #AE2D2D",
"R+	c #A71C1C",
"S+	c #A61B1B",
"T+	c #A41B1B",
"U+	c #A31D1D",
"V+	c #A01C1C",
"W+	c #9A1D1D",
"X+	c #8C2323",
"Y+	c #D17674",
"Z+	c #BF4747",
"`+	c #AF2C2C",
" @	c #AF2C2B",
".@	c #AF2B2B",
"+@	c #D18686",
"@@	c #F9EFEF",
"#@	c #A92020",
"$@	c #A81D1D",
"%@	c #A31B1B",
"&@	c #A11C1C",
"*@	c #971E1E",
"=@	c #951E1E",
"-@	c #862121",
";@	c #D36A67",
">@	c #C86868",
",@	c #E4B8B8",
"'@	c #EBCCCC",
")@	c #CE8281",
"!@	c #9F1C1C",
"~@	c #9D1C1C",
"{@	c #9B1D1D",
"]@	c #991D1D",
"^@	c #921E1E",
"/@	c #7C1E1E",
"(@	c #C25755",
"_@	c #CD8888",
":@	c #AB2222",
"<@	c #B03130",
"[@	c #E9C6C6",
"}@	c #FFFEFE",
"|@	c #A71D1D",
"1@	c #A71E1E",
"2@	c #B84C4C",
"3@	c #CF8686",
"4@	c #D79E9E",
"5@	c #DFB1B1",
"6@	c #DCABAB",
"7@	c #D29696",
"8@	c #BF6E6E",
"9@	c #A33030",
"0@	c #931F1F",
"a@	c #911F1F",
"b@	c #6D1A1A",
"c@	c #B04543",
"d@	c #B95F5F",
"e@	c #A91B1B",
"f@	c #D49090",
"g@	c #C87373",
"h@	c #AC2C2C",
"i@	c #D18D8D",
"j@	c #F7ECEC",
"k@	c #E1BFBF",
"l@	c #AE5555",
"m@	c #921F1F",
"n@	c #901F1F",
"o@	c #8E2020",
"p@	c #601717",
"q@	c #A23838",
"r@	c #A63E3E",
"s@	c #B02B2B",
"t@	c #E9C8C8",
"u@	c #B95151",
"v@	c #FDFAFA",
"w@	c #C87777",
"x@	c #F8EFEF",
"y@	c #EFD8D8",
"z@	c #CB8585",
"A@	c #B34D4D",
"B@	c #A22929",
"C@	c #A02929",
"D@	c #A94242",
"E@	c #BD6F6F",
"F@	c #E0BDBD",
"G@	c #FDFBFB",
"H@	c #D9B3B3",
"I@	c #952E2E",
"J@	c #8C2020",
"K@	c #561515",
"L@	c #982525",
"M@	c #BF5151",
"N@	c #C77979",
"O@	c #B64E4E",
"P@	c #FEFDFD",
"Q@	c #F4E4E4",
"R@	c #BD6565",
"S@	c #9D1D1D",
"T@	c #961E1E",
"U@	c #941E1E",
"V@	c #9F3C3C",
"W@	c #DEBDBD",
"X@	c #EFE0E0",
"Y@	c #9A3F3F",
"Z@	c #892121",
"`@	c #4B1212",
" #	c #891414",
".#	c #C76363",
"+#	c #AF4545",
"@#	c #AC3C3C",
"##	c #E3BEBE",
"$#	c #A22A2A",
"%#	c #981D1D",
"&#	c #8D2020",
"*#	c #B97979",
"=#	c #F2E7E7",
"-#	c #9B4141",
";#	c #8F2626",
">#	c #A53C3B",
",#	c #D07E7E",
"'#	c #B65959",
")#	c #D9A8A8",
"!#	c #E1BDBD",
"~#	c #9B2222",
"{#	c #981E1E",
"]#	c #8F1F1F",
"^#	c #8A2020",
"/#	c #8A2121",
"(#	c #B36F6F",
"_#	c #E7D2D2",
":#	c #C79797",
"<#	c #8B2222",
"[#	c #D98380",
"}#	c #D18B8B",
"|#	c #F2E2E2",
"1#	c #9D2B2B",
"2#	c #931E1E",
"3#	c #8E1F1F",
"4#	c #882222",
"5#	c #822C2C",
"6#	c #813535",
"7#	c #824342",
"8#	c #86504F",
"9#	c #8E6464",
"0#	c #977877",
"a#	c #AA9694",
"b#	c #C3B8B7",
"c#	c #D46A67",
"d#	c #C68787",
"e#	c #BD7474",
"f#	c #DDBABA",
"g#	c #A75959",
"h#	c #822727",
"i#	c #7C2E2E",
"j#	c #783636",
"k#	c #794344",
"l#	c #7C5353",
"m#	c #866969",
"n#	c #9B8888",
"o#	c #B8AFAF",
"p#	c #D6D7D7",
"q#	c #E7E8E8",
"r#	c #F9F9F9",
"s#	c #821F1F",
"t#	c #B64D4C",
"u#	c #917D7E",
"v#	c #B2AFB0",
"w#	c #CDCECF",
"x#	c #E2E3E3",
"y#	c #F4F4F4",
"z#	c #F8F8F8",
"A#	c #F4F0F0",
"B#	c #761B1B",
"C#	c #974846",
"D#	c #F1F1F1",
"E#	c #E3D4D4",
"F#	c #691A1A",
"G#	c #925D5D",
"H#	c #EAEAEA",
"I#	c #C59897",
"J#	c #5D1717",
"K#	c #986F70",
"L#	c #E3E3E3",
"M#	c #D6CFCF",
"N#	c #BFACAC",
"O#	c #AA8888",
"P#	c #986A6A",
"Q#	c #8C5151",
"R#	c #843D3D",
"S#	c #843636",
"T#	c #833534",
"U#	c #873634",
"V#	c #98403F",
"W#	c #501313",
"X#	c #A37F80",
"Y#	c #DEDEDE",
"Z#	c #CFC6C6",
"`#	c #BAA7A7",
" $	c #A68484",
".$	c #956666",
"+$	c #8A4F4F",
"@$	c #823C3C",
"#$	c #783333",
"$$	c #702929",
"%$	c #691D1D",
"&$	c #621717",
"*$	c #591515",
"=$	c #511212",
"-$	c #7D2A2A",
";$	c #7F3737",
">$	c #6D2A2A",
",$	c #651C1C",
"'$	c #5C1616",
")$	c #541414",
"                                                                ",
"                          . + @ # $ % & * = - ; >               ",
"    , ' ) ! ! ) ~ { ] ^ / ( _ : < [ } | 1 2 3 4 5               ",
"    6 7 8 9 9 0 a ^ . b c d e f g h i j k l m n o               ",
"    p q r s t u v w x y z A B C D E F G H I J K L M             ",
"    N O P Q R S x T T U V W X Y Z `  ...+.@.#.$.%.&.            ",
"    *.=.-.;.>.,.'.).!.~.{.].^./.(._.:.<.[.> }.|.1.2.            ",
"    3.4.5.6.7.8.9.0.a.% b.c.d.e.f.g.h.i.j.k.l.m.n.o.            ",
"    p.q.r.s.s.% t._.u.v.w.x.x.y.z.A.B.C.D.E.F.G.H.I.            ",
"    J.K.L.M.N.O.N.P.G Q.R.S.g.T.U.V.> W.X.Y.Z.`. +.+++          ",
"    @+#+$+%+e.e.S.&+f.*+g.T.= =+-+;+>+,+Y.'+)+ +.+!+~+          ",
"    {+]+^+/+(+(+g._+T.:+U.<.4 <+[+}+|+1+2+3+4+5+6+7+8+          ",
"    9+0+a+b+h.h.U.c+1+d+e+f+g+h+g+i+j+k+l+4+4+4+m+n+o+          ",
"    p+q+r+s+J J t+u+=+v+w+4+4+4+4+l+x+y+z+A+B+C+D+E+F+          ",
"      *.G+H+I+W.J+K+L+M+4+4+N+O+P+Q+ +R+S+T+U+V+o+F+W+          ",
"      X+Y+Z+`+ @.@+.+@4+4+@@k.`.#@$@.+!+%@&@V+o+F+W+*@=@        ",
"      -@;@>@&.Z.M ,@'@4+4+)@ +$@.+!+T+7+&@!@~@{@]@*@=@^@        ",
"      /@(@_@:@<@[@}@}@4+-+|@1@2@3@4@5@6@7@8@9@]@*@=@0@a@        ",
"      b@c@d@e@5+f@4+4+g@h@i@j@4+4+4+4+4+4+4+l+k@l@m@n@o@        ",
"      p@q@r@s@t@u@4+v@w@x@4+y@z@A@B@{@C@D@E@F@G@4+H@I@J@        ",
"      K@0+L@M@N@O@4+P@4+Q@R@S@F+{@W+]@*@T@U@0@V@W@4+X@Y@Z@      ",
"      `@q+ #.#+#@#4+4+##$#{@W+]@%#*@T@U@0@a@n@o@&#*#l+=#-#      ",
"        ;#>#,#'#)#4+!#~#]@{#*@T@=@U@0@m@n@]#&#J@^#/#(#_#:#      ",
"        <#[#}#v@4+|#1#T@T@=@U@2#m@a@3#4#5#6#7#8#9#0#a#b#        ",
"        Z@c#d#e#f#g#h#i#j#k#l#m#n#o#p#q#r#4+4+4+4+4+4+4+        ",
"        s#t#u#v#w#x#y#z#z#z#z#z#z#z#z#z#z#z#z#z#z#z#z#A#        ",
"        B#C#D#D#D#D#D#D#D#D#D#D#D#D#D#D#D#D#D#D#D#D#D#E#        ",
"        F#G#H#H#H#H#H#H#H#H#H#H#H#H#H#H#H#H#H#H#H#H#H#I#        ",
"        J#K#L#L#L#L#L#L#L#L#L#L#L#L#M#N#O#P#Q#R#S#T#U#V#        ",
"        W#X#Y#Y#Y#Z#`# $.$+$@$#$$$%$&$*$=$                      ",
"          -$;$>$,$'$)$                                          ",
"                                                                "};
