/* XPM */
static char * aptosid_manual_16_xpm[] = {
"16 16 160 2",
"  	c None",
". 	c #BB4646",
"+ 	c #BA4848",
"@ 	c #BA5756",
"# 	c #CE6C6A",
"$ 	c #CF6D6B",
"% 	c #CE6B69",
"& 	c #CC6665",
"* 	c #CA6462",
"= 	c #C65B59",
"- 	c #C86261",
"; 	c #C96968",
"> 	c #C86867",
", 	c #DA9C9B",
"' 	c #A92F2F",
") 	c #BC514F",
"! 	c #D27977",
"~ 	c #DD9B9A",
"{ 	c #D58785",
"] 	c #E7BAB9",
"^ 	c #D78D8C",
"/ 	c #CF7B7A",
"( 	c #D07E7D",
"_ 	c #D48B8A",
": 	c #CF7F7E",
"< 	c #B44949",
"[ 	c #A43C3B",
"} 	c #CF6D6C",
"| 	c #DC9A9A",
"1 	c #DC9B9A",
"2 	c #D48483",
"3 	c #F7EAE9",
"4 	c #BE4A49",
"5 	c #C0504F",
"6 	c #C25B5A",
"7 	c #B53B3A",
"8 	c #B13130",
"9 	c #AB2727",
"0 	c #932C2C",
"a 	c #BD4140",
"b 	c #C15252",
"c 	c #C96C6B",
"d 	c #BF4F4E",
"e 	c #BD4B4A",
"f 	c #B94645",
"g 	c #B8403F",
"h 	c #B43B3A",
"i 	c #B23534",
"j 	c #AE2C2C",
"k 	c #A81F1F",
"l 	c #842424",
"m 	c #B73B3A",
"n 	c #BB4443",
"o 	c #BA4241",
"p 	c #B9403F",
"q 	c #BA4443",
"r 	c #CF7D7D",
"s 	c #C76B6A",
"t 	c #CA7574",
"u 	c #C15E5E",
"v 	c #CF8383",
"w 	c #A61E1E",
"x 	c #7A1F1F",
"y 	c #B54F4F",
"z 	c #B53938",
"A 	c #BC4B4A",
"B 	c #EFD4D4",
"C 	c #F0D7D7",
"D 	c #F2DEDE",
"E 	c #EDD0D0",
"F 	c #E7C2C2",
"G 	c #EFD7D7",
"H 	c #B75353",
"I 	c #911C1C",
"J 	c #701B1B",
"K 	c #AB4848",
"L 	c #B02F2E",
"M 	c #C66767",
"N 	c #DCA1A1",
"O 	c #FEFCFC",
"P 	c #C25E5E",
"Q 	c #AF3231",
"R 	c #A71B1B",
"S 	c #A41B1B",
"T 	c #A01C1C",
"U 	c #9C1D1D",
"V 	c #8D1C1C",
"W 	c #621616",
"X 	c #992525",
"Y 	c #DEAAAA",
"Z 	c #FAF1F1",
"` 	c #D69494",
" .	c #AC2828",
"..	c #BD5757",
"+.	c #BF6363",
"@.	c #B14949",
"#.	c #9C2020",
"$.	c #971E1E",
"%.	c #901E1E",
"&.	c #521313",
"*.	c #B34645",
"=.	c #C56666",
"-.	c #E6BEBE",
";.	c #E3B7B7",
">.	c #DDAAAA",
",.	c #EED7D7",
"'.	c #D9A5A5",
").	c #CF9191",
"!.	c #D9ABAB",
"~.	c #ECD6D6",
"{.	c #C48585",
"].	c #8F2222",
"^.	c #BD4A49",
"/.	c #C05C5C",
"(.	c #D8A2A2",
"_.	c #F9F2F2",
":.	c #BE6868",
"<.	c #9B1E1E",
"[.	c #991D1D",
"}.	c #941E1E",
"|.	c #942727",
"1.	c #C99595",
"2.	c #DAB8B8",
"3.	c #A53A39",
"4.	c #CB7676",
"5.	c #F3E4E4",
"6.	c #AE4E4E",
"7.	c #951E1E",
"8.	c #931F1F",
"9.	c #8E1E1E",
"0.	c #872424",
"a.	c #832C2C",
"b.	c #843838",
"c.	c #AF8181",
"d.	c #922A2A",
"e.	c #984C4C",
"f.	c #A47C7C",
"g.	c #875D5D",
"h.	c #987B7B",
"i.	c #AA9898",
"j.	c #CFC9C9",
"k.	c #EAEBEB",
"l.	c #FAFAFA",
"m.	c #FBFBFB",
"n.	c #F8F7F7",
"o.	c #803434",
"p.	c #EDEDED",
"q.	c #D8C8C8",
"r.	c #815454",
"s.	c #E0E0E0",
"t.	c #DDDBDB",
"u.	c #C9BCBC",
"v.	c #B09797",
"w.	c #A17E7E",
"x.	c #937171",
"y.	c #875E5E",
"z.	c #7C5151",
"A.	c #723F3F",
"B.	c #6B3232",
"C.	c #662D2D",
"                    . +         ",
"  @ # $ % & * = - ; > , '       ",
"  ) ! ~ ~ { ] ^ / ( _ : <       ",
"  [ } | 1 2 3 4 5 6 7 8 9       ",
"  0 a b c d e f g h i j k       ",
"  l m n o p q r s t u v w       ",
"  x y z A , B C D E F G H I     ",
"  J K L M N O P Q R S T U V     ",
"  W X 9 Y Z `  ...+.@.#.$.%.    ",
"  &.*.=.-.;.>.,.'.).!.~.{.].    ",
"    ^./.(._.:.<.[.$.}.|.1.2.    ",
"    3.4.5.6.$.7.8.9.0.a.b.c.    ",
"    d.e.f.g.h.i.j.k.l.m.m.n.    ",
"    o.p.p.p.p.p.p.p.p.p.p.q.    ",
"    r.s.t.u.v.w.x.y.z.A.B.      ",
"      C.                        "};
