/* XPM */
static char *sidux-manual-16[] = {
/* columns rows colors chars-per-pixel */
"16 16 186 2",
"   c black",
".  c #060606",
"X  c gray3",
"o  c gray4",
"O  c #0B0B0B",
"+  c #0C0C0C",
"@  c gray5",
"#  c #0E0E0E",
"$  c #111111",
"%  c #151515",
"&  c #161616",
"*  c gray9",
"=  c #181818",
"-  c gray10",
";  c #1E1E1E",
":  c gray15",
">  c #2F2F2F",
",  c gray19",
"<  c #393939",
"1  c #2E4B6F",
"2  c #2D4B71",
"3  c #314A6C",
"4  c #3D4C62",
"5  c #324F75",
"6  c #35547A",
"7  c #385377",
"8  c gray25",
"9  c #444444",
"0  c #464646",
"q  c #484848",
"w  c gray29",
"e  c #4C4C4C",
"r  c #474E56",
"t  c #484F58",
"y  c #4B5665",
"u  c #4B5765",
"i  c #4B5666",
"p  c #4A5769",
"a  c #40597A",
"s  c #4B5E76",
"d  c #4C5D74",
"f  c #4B607E",
"g  c #4F647F",
"h  c #5A646F",
"j  c #586371",
"k  c gray38",
"l  c #60646B",
"z  c #767676",
"x  c gray47",
"c  c #3E5A82",
"v  c #3F5C84",
"b  c #3C5D8A",
"n  c #425F86",
"m  c #445E82",
"M  c #446188",
"N  c #456288",
"B  c #486080",
"V  c #446693",
"C  c #456899",
"Z  c #46699B",
"A  c #4F6C95",
"S  c #436FA9",
"D  c #4771A3",
"F  c #4B72A5",
"G  c #4B75AB",
"H  c #4D76A8",
"J  c #4778BB",
"K  c #4779BC",
"L  c #4B76B0",
"P  c #4879BD",
"I  c #487ABD",
"U  c #497ABD",
"Y  c #487BBF",
"T  c #497BBE",
"R  c #547CAF",
"E  c #567DAE",
"W  c #577DAE",
"Q  c #587BA9",
"!  c #597DAC",
"~  c #606E81",
"^  c #616F80",
"/  c #647182",
"(  c #657890",
")  c #6D7D91",
"_  c #4A7EC2",
"`  c #4D7FC2",
"'  c #7C8898",
"]  c #6A8BB8",
"[  c #708EB3",
"{  c #7490B4",
"}  c #7793B5",
"|  c #7891B2",
" . c #7993B4",
".. c #7993B7",
"X. c #7895B7",
"o. c #7994B6",
"O. c #7A95B7",
"+. c #7B95B7",
"@. c #7B96B8",
"#. c #7A97BA",
"$. c #7D97B8",
"%. c #4B84CE",
"&. c #4D85CE",
"*. c #4787D9",
"=. c #4888DA",
"-. c #4A88D9",
";. c #4B89D8",
":. c #4A89DB",
">. c #4B8ADC",
",. c #4D8BDC",
"<. c #4D8CDB",
"1. c #4D8CDD",
"2. c #4E8CDE",
"3. c #4F8DDE",
"4. c #5286CC",
"5. c #508BDA",
"6. c #518CDB",
"7. c #508EDF",
"8. c #518EDF",
"9. c #588EDA",
"0. c #5590DA",
"q. c #5790DB",
"w. c #5490DF",
"e. c #528FE0",
"r. c #5390E1",
"t. c #5792E2",
"y. c #5992E1",
"u. c #6A9DDE",
"i. c #87888A",
"p. c #8E8F8F",
"a. c #8E8F90",
"s. c #8F9091",
"d. c #939595",
"f. c gray58",
"g. c gray59",
"h. c #989898",
"j. c #989A9B",
"k. c gray62",
"l. c #8494A3",
"z. c #809BBA",
"x. c #859DBB",
"c. c #89A1BF",
"v. c #A0A0A0",
"b. c #A6A8AA",
"n. c #A6A9AC",
"m. c #A8A9A9",
"M. c #A2ADBA",
"N. c #AEB1B5",
"B. c #B0B0B2",
"V. c #B1B2B3",
"C. c #B5B6B6",
"Z. c #B6B6B6",
"A. c #B6B7B7",
"S. c #B5B7BB",
"D. c #B6B9BF",
"F. c gray72",
"G. c #B8BABD",
"H. c #B9BBBE",
"J. c #BABBBD",
"K. c #BBBBBE",
"L. c #BCBCBC",
"P. c #BEBEBF",
"I. c #8CA5C4",
"U. c #A3BAD8",
"Y. c #ABC1DD",
"T. c #AFC2D9",
"R. c #B3C6DE",
"E. c #BEC7D2",
"W. c #B1C6E1",
"Q. c #B4C8E2",
"!. c #C0C2C5",
"~. c gray77",
"^. c gray78",
"/. c #C6C6C8",
"(. c #C8C9CA",
"). c #CACACA",
"_. c #C3C9D0",
"`. c #C5CDD7",
"'. c #C9CCD1",
"]. c #C9CDD2",
"[. c #CAD1DA",
"{. c #CED2D8",
"}. c #CED4DB",
"|. c #D0D0D0",
" X c gray100",
".X c None",
/* pixels */
".X.Xk x l.c.x.z.$.#.} { [ D .X.X",
".X  e z ' #.O.O...+.O. .| H .X.X",
".X  . . 1 u.0.*.*.9.<.>.>.>..X.X",
".X  + + 2 <.] g ~ / ) ~ d ;..X.X",
".X  * + 5 B D.'.|.^.F.C.f.%..X.X",
".X  ; * 6 f.)._./.C.C.!.k.%..X.X",
".X  : = 7 k.~.V.h r t u 4 6..X.X",
".X  , * c i.L.C.b.n.m.p.A 8..X.X",
".X  < * n j C.C.F.J.L.L.g.4..X.X",
".X  8 $ N G h p.g.h.L.U.V.N .X.X",
".X  9 + N f d p i i h.(.L.a .X.X",
".X  0 X a M.E.`.[.}.{.'.V.C .X.X",
".X  q X v I.U.Y.W.Q.R.T.( 9..X.X",
".X  q + C G R W W ! Q F 4.8..X.X",
".X  , + b 3.>.3.3.8.8.8.r.t..X.X",
".X.X= X 3 K T J J T T T _ S   .X"
};
