/* XPM */
static char *sidux_manual___[] = {
/* columns rows colors chars-per-pixel */
"16 16 170 2",
"   c #521414",
".  c #5C1616",
"X  c #6B1A1A",
"o  c #771E1E",
"O  c #682F2F",
"+  c #6B3333",
"@  c #714040",
"#  c #7C5252",
"$  c #851E1E",
"%  c #8C1A1A",
"&  c #921B1B",
"*  c #951A1A",
"=  c #931C1C",
"-  c #921F1F",
";  c #941D1D",
":  c #991D1D",
">  c #9B1D1D",
",  c #981E1E",
"<  c #9D1C1C",
"1  c #9F1C1C",
"2  c #A41B1B",
"3  c #A01C1C",
"4  c #A81D1D",
"5  c #A91F1F",
"6  c #832323",
"7  c #812A2A",
"8  c #992626",
"9  c #9A2626",
"0  c #942A2A",
"q  c #962D2D",
"w  c #8A3232",
"e  c #813B3B",
"r  c #853C3B",
"t  c #A32525",
"y  c #AA2322",
"u  c #AC2626",
"i  c #A92A2A",
"p  c #AD2929",
"a  c #AE2A29",
"s  c #AE2B2A",
"d  c #AA2F2E",
"f  c #AC3333",
"g  c #A53939",
"h  c #A53A39",
"j  c #B23333",
"k  c #B33433",
"l  c #B53C3B",
"z  c #B93D3C",
"x  c #B83E3D",
"c  c #964343",
"v  c #875C5D",
"b  c #AD4C4B",
"n  c #B74443",
"m  c #B24646",
"M  c #B84241",
"N  c #BB4342",
"B  c #BB4746",
"V  c #BC4645",
"C  c #BD4847",
"Z  c #B94949",
"A  c #BC4948",
"S  c #BD4948",
"D  c #BD4A49",
"F  c #BD4C4B",
"G  c #B94D4D",
"H  c #BF4D4C",
"J  c #BD504E",
"K  c #B85453",
"L  c #BB5856",
"P  c #BF5A5A",
"I  c #866161",
"U  c #937070",
"Y  c #907474",
"T  c #9F7474",
"R  c #A97B7B",
"E  c #C04241",
"W  c #C15C5B",
"Q  c #C25C5C",
"!  c #C65D5C",
"~  c #C66565",
"^  c #C86463",
"/  c #CD6664",
"(  c #CC6866",
")  c #C76969",
"_  c #C76B6A",
"`  c #C96D6B",
"'  c #CE6C6B",
"]  c #C86C6C",
"[  c #C86D6C",
"{  c #D1716F",
"}  c #CB7170",
"|  c #CB7272",
" . c #CD7474",
".. c #CD7676",
"X. c #CD7777",
"o. c #C17A7A",
"O. c #C47878",
"+. c #C87B7B",
"@. c #CD7C7C",
"#. c #CE7D7D",
"$. c #D27270",
"%. c #D57E7C",
"&. c #D6807E",
"*. c #A08080",
"=. c #A29394",
"-. c #AE9898",
";. c #B8B3B3",
":. c #D18181",
">. c #D48A8A",
",. c #D28E8E",
"<. c #CC9A9A",
"1. c #D79292",
"2. c #D79393",
"3. c #D39595",
"4. c #D89695",
"5. c #D99A99",
"6. c #D89B9B",
"7. c #D99B9B",
"8. c #D99D9D",
"9. c #DFA7A6",
"0. c #DFA7A7",
"q. c #D6ACAC",
"w. c #DFA9A9",
"e. c #C3B7B7",
"r. c #D1BFBE",
"t. c #E0A4A3",
"y. c #E0AAA9",
"u. c #E2ABAA",
"i. c #E3ACAB",
"p. c #E3AFAF",
"a. c #E4AEAC",
"s. c #E3B0B0",
"d. c #E2B3B3",
"f. c #E5B9B8",
"g. c #E5BFBF",
"h. c #E9BDBC",
"j. c #E8BEBD",
"k. c #E9BEBE",
"l. c #E9BFBF",
"z. c gray79",
"x. c #CBCCCC",
"c. c #CDCDCD",
"v. c #CECECE",
"b. c LightGray",
"n. c #D6D5D5",
"m. c #D7D7D7",
"M. c gray86",
"N. c #DDDDDD",
"B. c #DFDFDF",
"V. c #E4C1C1",
"C. c #E9C6C6",
"Z. c #E7CACA",
"A. c #ECC9C9",
"S. c #EDCACA",
"D. c #EECFCE",
"F. c #EDD1D1",
"G. c #EFD4D3",
"H. c #E7DFDF",
"J. c gray88",
"K. c #E1E1E1",
"L. c gray90",
"P. c gray91",
"I. c #F4E2E2",
"U. c #F5E3E3",
"Y. c #F5E5E5",
"T. c #F6EAEA",
"R. c #FAF2F2",
"E. c #FEFCFC",
"W. c #FEFDFD",
"Q. c None",
/* pixels */
"Q.Q.Q.Q.Q.Q.Q.Q.Q.Q.H N Q.Q.Q.Q.",
"Q.L { $.:.%.( y.! ^ X.$.f Q.Q.Q.",
"Q.K ' h.i.i.h.A.s.y.2.f.f Q.Q.Q.",
"Q.h / h.u.h.s.D.y.A.5.1.n Q.Q.Q.",
"Q.0 E y.>.' ` _ N n l j u Q.Q.Q.",
"Q.6 z D D B D :.| ` W @.5 Q.Q.Q.",
"Q.o K z D 2.G.U.I.C.C.F.G * Q.Q.",
"Q.X b k ) y.E.W s y 5 2 3 & Q.Q.",
"Q.. 9 s 6.Y.#.s Z P i 3 < & Q.Q.",
"Q.  m ~ 8.d.6.R.g.3.V.D.o.8 Q.Q.",
"Q.Q.D ) ,.W.O.t < > > q q.<.Q.Q.",
"Q.Q.h X.T.O.> > = % $ o r R Q.Q.",
"Q.Q.q c T v Y =.;.x.m.B.P.H.Q.Q.",
"Q.Q.w L.B.B.b.x.x.v.v.m.K.r.Q.Q.",
"Q.Q.e M.m.e.-.*.U v # @ + Q.Q.Q.",
"Q.Q.Q.O Q.Q.Q.Q.Q.Q.Q.Q.Q.Q.Q.Q."
};
