/* XPM */
static char *sidux-manual[] = {
/* columns rows colors chars-per-pixel */
"32 32 177 2",
"   c #000000",
".  c #0B0B0B",
"X  c #131313",
"o  c #1B1B1B",
"O  c #232323",
"+  c #2B2B2B",
"@  c #2E333B",
"#  c #333333",
"$  c #363738",
"%  c #3B3B3B",
"&  c #2D3A4B",
"*  c #313740",
"=  c #323D4C",
"-  c #333F50",
";  c #3D4043",
":  c #3B434D",
">  c #334255",
",  c #3D4652",
"<  c #3C495B",
"1  c #2E4563",
"2  c #324560",
"3  c #344C6C",
"4  c #3C4D64",
"5  c #325077",
"6  c #33557E",
"7  c #39567C",
"8  c #424242",
"9  c #4C4C4C",
"0  c #464A50",
"q  c #4A525C",
"w  c #535353",
"e  c #5B5B5B",
"r  c #435164",
"t  c #4E5B6D",
"y  c #5E6164",
"u  c #5C6269",
"i  c #626364",
"p  c #676768",
"a  c gray42",
"s  c #727272",
"d  c #7B7B7B",
"f  c #2E5484",
"g  c #2D5588",
"h  c #2F588C",
"j  c #325585",
"k  c #3C5A84",
"l  c #3E5D88",
"z  c #245FA6",
"x  c #3A639A",
"c  c #3E74BA",
"v  c #405E85",
"b  c #40618A",
"n  c #436594",
"m  c #406299",
"M  c #436895",
"N  c #436A9C",
"B  c #4C6B93",
"V  c #4B6E9D",
"C  c #546983",
"Z  c #5D799E",
"A  c #406CA4",
"S  c #406EA9",
"D  c #4270AC",
"F  c #4B71A3",
"G  c #4B74AA",
"H  c #4373B2",
"J  c #4077BD",
"K  c #4178BF",
"L  c #4876B4",
"P  c #4A78B4",
"I  c #497ABB",
"U  c #5F7BA0",
"Y  c #527CB1",
"T  c #757D86",
"R  c #7E7F80",
"E  c #457BC2",
"W  c #5680B4",
"Q  c #5B82B4",
"!  c #75879E",
"~  c #7A889A",
"^  c #6685AB",
"/  c #6A86AA",
"(  c #6C89AD",
")  c #6787B0",
"_  c #6488B7",
"`  c #6B8BB3",
"'  c #6C8DB9",
"]  c #6A90BD",
"[  c #7287A1",
"{  c #7B8EA6",
"}  c #748FB1",
"|  c #7590B4",
" . c #7292BA",
".. c #7A94B4",
"X. c #7E98B8",
"o. c #4C82CA",
"O. c #4686D9",
"+. c #4987D7",
"@. c #4D88D6",
"#. c #4B8ADB",
"$. c #5283C6",
"%. c #5185CC",
"&. c #5986C3",
"*. c #518EDE",
"=. c #5A8CD1",
"-. c #5591DB",
";. c #5A92DC",
":. c #518EE0",
">. c #5491E1",
",. c #5A95E5",
"<. c #5D98E8",
"1. c #6297DC",
"2. c #649ADC",
"3. c #629CEB",
"4. c #78A5DF",
"5. c #7EA8DF",
"6. c #66A0EE",
"7. c #68A0F0",
"8. c #7AA6E0",
"9. c #828282",
"0. c #838589",
"q. c #83888D",
"w. c #8D8D8D",
"e. c #898D92",
"r. c gray58",
"t. c #9D9E9F",
"y. c #839CBA",
"u. c #8BA1BD",
"i. c #91A5BF",
"p. c #A5A5A5",
"a. c #ABABAB",
"s. c #ACAEB1",
"d. c #B5B5B5",
"f. c #B4B7BB",
"g. c #B5B8BC",
"h. c #BBBBBB",
"j. c #98B4D7",
"k. c #9CB7D9",
"l. c #9FBADC",
"z. c #A7B4C6",
"x. c #ACBBCE",
"c. c #A0B6D1",
"v. c #A7BCD6",
"b. c #A3BDDE",
"n. c #AABFD9",
"m. c #B3B9C0",
"M. c #BABEC2",
"N. c #ACC1DC",
"B. c #BFC1C3",
"V. c #B5C2D4",
"C. c #B3C5DE",
"Z. c #BAC5D4",
"A. c #B8C6D9",
"S. c #BEC8D6",
"D. c #BBCADC",
"F. c #ACC4E3",
"G. c #B6C8E0",
"H. c #BBCCE2",
"J. c #C2C2C3",
"K. c #C3C7CB",
"L. c #C4C8CC",
"P. c #CACBCB",
"I. c #C0C7D0",
"U. c #C4CBD4",
"Y. c #C2CDDC",
"T. c #C9CDD1",
"R. c #C8CFD9",
"E. c #C7D1DF",
"W. c #CDD1D7",
"Q. c #C9D2DE",
"!. c #D2D2D2",
"~. c #D2D5D9",
"^. c #D5D8DA",
"/. c #D9D9D9",
"(. c #C9D3E0",
"). c gray100",
"_. c None",
/* pixels */
"_._._._._._._._._._._._._._._._._._._._._._._._._._._._._._._._.",
"_._._.  9 d d d 9.i.u.u.u.y.y.y.......| } } ( / ^ ^ M 6 _._._._.",
"_._._.  d h.J.J.J.P.P.P.P.P.P.!.!.!.!.!.!.!./.^././.{ z _._._._.",
"_._._.  . $ $ % % Z _ ] Q Q Q Q Q Y Q W Y Y Y Y Y G G x _._._._.",
"_._._.    . .   . x 2.8.@.O.O.O.O.#.#.2.#.O.#.#.@.#.#.@._._._._.",
"_._._.    . .     g ;.2.4.O.#.O.O.O.#.;.-.#.#.@.#.#.#.#._._._._.",
"_._._.    X .   . f #.1.8.-.o.P F B B B ^ B B B B o.#.#._._._._.",
"_._._.    o .   . f #.O.) ! 9 i s 9.0.9.e.q.d d a : #.@._._._._.",
"_._._.  . o .   . f #.4 s x.L.P.!.!.!.P.g.m.d.d.d.% o.#._._._._.",
"_._._.  . o o   X f N e P.P.S.!.!.!.P.d.d.f.f.d.d.; $.*._._._._.",
"_._._.  . O o   X j : d.P.P.T.L.P.P.d.d.d.d.f.g.J.8 o.*._._._._.",
"_._._.  . O o . o k = J.P.P.L.Z.K.d.d.d.d.d.h.T.P.8 %.*._._._._.",
"_._._.  . + o . o 6 9 J.J.J.P.t.T y e e e e e y 9 @ -.*._._._._.",
"_._._.  . + o . o 5 e J.B.J.J.9 t r > = - - 1 3 3 P ,.>._._._._.",
"_._._.  o + O . O j 8 h.h.J.h.p.R q.0.d d i w q &.,.,.>._._._._.",
"_._._.  X # O . O x % d.h.d.d.d.d.g.g.M.J.J.J.p.w F <.>._._._._.",
"_._._.  o $ O . + m = t.d.d.d.d.d.d.M.h.M.M.h.h.s.9 ,.,._._._._.",
"_._._.  o # + X + A v w d.h.h.h.B.h.M.M.h.h.h.h.h.a V <._._._._.",
"_._._.  o $ + X + S >.& w a.h.J.J.J.J.J.K.B.h.h.d.r.r <._._._._.",
"_._._.  O $ + X + P <.>.2 $ % * 8 8 8 ; i h.J.B.B.t.< 3._._._._.",
"_._._.  O % + X # I ,.;.;.$.G l k k v l : s.L.P.J.a.0 3._._._._.",
"_._._.  O % + X # L 9 9 9 w w w w w w w s L.T.P.J.a.- 7._._._._.",
"_._._.  + % # X # v T K.U.T.R.~.^.^.^./.^.!.!.P.P.w.4 3._._._._.",
"_._._.  + % + o $ b ~ n.Z.U.Y.Y.R.(.(.(.R.R.R.U.I.i n 3._._._._.",
"_._._.  + % # o % n [ v.n.V.F.G.H.H.H.D.D.D.Z.V.z.< =.3._._._._.",
"_._._.  $ % # o % A ^ j.k.l.b.F.F.G.F.N.F.N.n.k.C k 3.3._._._._.",
"_._._.  # 8 # o % H M ' ' ' ]  .]  .4.}  .' Z 7 k -.<.3._._._._.",
"_._._.  # $ # o % @.D D c x D S D S x A A A D I *.>.,.3._._._._.",
"_._._.  + + O o + *.#.#.#.*.#.*.>.>.*.*.>.>.>.>.>.>.>.3._._._._.",
"_._._.  O O o X O +.#.#.#.#.#.#.#.#.#.#.#.#.#.>.*.*.*.,._._._._.",
"_._._.  X o X . o c c c c c c c c c E K K K K K E E E m     _._.",
"_.                                                            _."
};
