/* XPM */
static char *sidux_manual___[] = {
/* columns rows colors chars-per-pixel */
"16 16 171 2",
"   c #521414",
".  c #5C1616",
"X  c #6B1A1A",
"o  c #761E1E",
"O  c #682F2F",
"+  c #7F2C2C",
"@  c #6B3333",
"#  c #714141",
"$  c #7C5252",
"%  c #821E1E",
"&  c #881C1C",
"*  c #8E1C1C",
"=  c #911B1B",
"-  c #901D1D",
";  c #901E1E",
":  c #941F1F",
">  c #971E1E",
",  c #961F1F",
"<  c #9B1D1D",
"1  c #991E1E",
"2  c #9C1D1D",
"3  c #A51B1B",
"4  c #A01C1C",
"5  c #A41C1C",
"6  c #A71C1C",
"7  c #822323",
"8  c #8F2020",
"9  c #992626",
"0  c #952828",
"q  c #952B2B",
"w  c #972F2F",
"e  c #8A3232",
"r  c #823C3C",
"t  c #843D3C",
"y  c #A02727",
"u  c #A92020",
"i  c #AA2323",
"p  c #AB2323",
"a  c #AC2524",
"s  c #A72828",
"d  c #A62D2D",
"f  c #A92D2D",
"g  c #AF2D2C",
"h  c #B12F2F",
"j  c #A63939",
"k  c #A53B39",
"l  c #B23535",
"z  c #B63939",
"x  c #B53B3B",
"c  c #B83A3A",
"v  c #B83D3C",
"b  c #BF3E3D",
"n  c #B9403F",
"m  c #944343",
"M  c #855C5C",
"N  c #AC4949",
"B  c #B54040",
"V  c #B24645",
"C  c #B64747",
"Z  c #B84140",
"A  c #BA4241",
"S  c #BA4342",
"D  c #BB4443",
"F  c #BA4646",
"G  c #BC4645",
"H  c #BB4847",
"J  c #B64E4E",
"K  c #BD4B4A",
"L  c #BD504E",
"P  c #BF504F",
"I  c #B65252",
"U  c #BF5656",
"Y  c #BF5757",
"T  c #BB5857",
"R  c #BC5C5C",
"E  c #866161",
"W  c #8F7475",
"Q  c #937070",
"!  c #9F7676",
"~  c #AB7F7F",
"^  c #BE7A7A",
"/  c #CA5C5A",
"(  c #C66261",
")  c #C46262",
"_  c #C56666",
"`  c #C66767",
"'  c #C86362",
"]  c #CA6462",
"[  c #C76C6C",
"{  c #CA6B6A",
"}  c #CF6D6B",
"|  c #C96D6D",
" . c #D06D6B",
".. c #CB7676",
"X. c #CD7674",
"o. c #CD7777",
"O. c #C27979",
"+. c #C67C7C",
"@. c #CB7878",
"#. c #CC7979",
"$. c #CE7A7A",
"%. c #CF7D7D",
"&. c #D07070",
"*. c #D27876",
"=. c #D37B79",
"-. c #A08080",
";. c #A39494",
":. c #AE9898",
">. c #B8B4B4",
",. c #D18585",
"<. c #D08F8F",
"1. c #D58D8C",
"2. c #D58F8F",
"3. c #CA9B9B",
"4. c #D69292",
"5. c #D79292",
"6. c #D79B9B",
"7. c #D49C9C",
"8. c #D89998",
"9. c #D89C9C",
"0. c #DDA0A0",
"q. c #DDA6A6",
"w. c #D6AFAF",
"e. c #C2B7B7",
"r. c #D1BFBE",
"t. c #E0A9A9",
"y. c #E2A9A8",
"u. c #E1AAA9",
"i. c #E3AEAE",
"p. c #E1B2B2",
"a. c #E4B2B1",
"s. c #E6B5B5",
"d. c #E5B7B6",
"f. c #E6B8B7",
"g. c #E5B9B9",
"h. c #E7BFBF",
"j. c #E8BDBC",
"k. c #CACACA",
"l. c #CCCDCD",
"z. c #CDCDCD",
"x. c #CECECE",
"c. c #CFCFCF",
"v. c #D3D3D3",
"b. c #D5D4D4",
"n. c #D8D8D8",
"m. c #D9D9D9",
"M. c #DBDBDB",
"N. c #DDDDDD",
"B. c #E4C4C4",
"V. c #E7C5C5",
"C. c #EAC2C1",
"Z. c #E9C4C4",
"A. c #EAC4C4",
"S. c #EBC5C4",
"D. c #EBC7C7",
"F. c #E7CBCB",
"G. c #EDD1D1",
"H. c #EFD2D1",
"J. c #EED2D2",
"K. c #E7DFDF",
"L. c #E1E1E1",
"P. c #E7E7E7",
"I. c #E9E9E9",
"U. c #F4E3E3",
"Y. c #F5E3E3",
"T. c #F5E4E4",
"R. c #F5EAEA",
"E. c #FBF4F4",
"W. c #FEFCFC",
"Q. c #FEFDFD",
"!. c None",
/* pixels */
"!.!.!.!.!.!.!.!.!.!.F v !.!.!.!.",
"!.T  .} =.*.] i.] { X.$.f !.!.!.",
"!.L &.C.y.d.j.S.u.u.2.d.s !.!.!.",
"!.k / S.a.d.d.H.0.A.5.,.B !.!.!.",
"!.q b 5.X.( U F A x l g u !.!.!.",
"!.7 c D A n A %.| ` Y @.3 !.!.!.",
"!.o I z F 2.J.Y.U.A.h.J.J = !.!.",
"!.X N h _ q.W.U i 3 5 4 2 * !.!.",
"!.. 9 u 9.Y.$.a C R d 1 1 - !.!.",
"!.  V ( 9.p.9.E.V.7.B.F.^ 8 !.!.",
"!.!.K [ <.W.+.9 1 > : 0 w.3.!.!.",
"!.!.j ..R.O.> > - & % + t ~ !.!.",
"!.!.w m ! M W ;.>.k.m.L.I.K.!.!.",
"!.!.e I.L.N.v.c.k.c.c.m.L.r.!.!.",
"!.!.r m.b.e.:.-.Q E $ # @ !.!.!.",
"!.!.!.@ !.!.!.!.!.!.!.!.!.!.!.!."
};
