/* XPM */
static char *sidux-manual[] = {
/* columns rows colors chars-per-pixel */
"32 32 181 2",
"   c #000000",
".  c #0B0B0B",
"X  c #131313",
"o  c #1B1B1B",
"O  c #232323",
"+  c #2B2B2B",
"@  c #2F353C",
"#  c #333334",
"$  c #3B3B3B",
"%  c #2D3D52",
"&  c #353C45",
"*  c #3C4045",
"=  c #34465D",
"-  c #3B4757",
";  c #3E4C5F",
":  c #2F4767",
">  c #3C4D62",
",  c #34557D",
"<  c #3D5476",
"1  c #3A567C",
"2  c #3E587A",
"3  c #424242",
"4  c #42474E",
"5  c #45484B",
"6  c #4B4B4B",
"7  c #424B57",
"8  c #414C5B",
"9  c #4E4F51",
"0  c #484F59",
"q  c #535354",
"w  c #575A5E",
"e  c #59595A",
"r  c #465365",
"t  c #41536C",
"y  c #48576D",
"u  c #405B7E",
"i  c #485B75",
"p  c #636464",
"a  c gray42",
"s  c #69707A",
"d  c gray45",
"f  c #76787A",
"g  c gray49",
"h  c #345583",
"j  c #355A8B",
"k  c #3C5A81",
"l  c #245DA2",
"z  c #3F608B",
"x  c #366199",
"c  c #3B6193",
"v  c #39639A",
"b  c #3D689E",
"n  c #3D69A2",
"m  c #3E75BA",
"M  c #435F82",
"N  c #456185",
"B  c #42618B",
"V  c #48648B",
"C  c #4E6B8F",
"Z  c #416593",
"A  c #40669A",
"S  c #456894",
"D  c #42699C",
"F  c #496893",
"G  c #4A6D9D",
"H  c #597292",
"J  c #5B789C",
"K  c #426BA2",
"L  c #406EA9",
"P  c #4572AC",
"I  c #4A71A5",
"U  c #4974AB",
"Y  c #4F79AC",
"T  c #4475B5",
"R  c #4177BE",
"E  c #4378BD",
"W  c #4976B2",
"Q  c #4F7AB4",
"!  c #4A7CBE",
"~  c #5178AB",
"^  c #527CB0",
"/  c #527DB9",
"(  c #617C9E",
")  c #6A7E97",
"_  c #657FA0",
"`  c #457AC1",
"'  c #4B7EC2",
"]  c #497FC9",
"[  c #5680B4",
"{  c #5B82B4",
"}  c #6A829D",
"|  c #6581A2",
" . c #6283AE",
".. c #6B82A0",
"X. c #658AB7",
"o. c #6D92BF",
"O. c #7E93AF",
"+. c #7590B2",
"@. c #4B82CB",
"#. c #4686D9",
"$. c #4887D9",
"%. c #4B88D7",
"&. c #4B8ADB",
"*. c #5486C8",
"=. c #558BD5",
"-. c #508DDE",
";. c #5B93DB",
":. c #4B87E1",
">. c #518FE0",
",. c #5491E1",
"<. c #5A95E4",
"1. c #5E97E8",
"2. c #5E98E8",
"3. c #6292CF",
"4. c #6499DB",
"5. c #689BDC",
"6. c #7C9AC2",
"7. c #6FA0DD",
"8. c #72A1DE",
"9. c #828283",
"0. c gray54",
"q. c #828C9A",
"w. c #949495",
"e. c #96999C",
"r. c #989898",
"t. c #879BB5",
"y. c #9098A2",
"u. c #919EAE",
"i. c #9C9FA3",
"p. c #9BA1A8",
"a. c #9DA8B6",
"s. c #A6A6A6",
"d. c #A7AAAE",
"f. c #ACACAC",
"g. c #A7ABB1",
"h. c #A9AEB5",
"j. c #B5B5B5",
"k. c #B3B6BA",
"l. c #B6BABE",
"z. c #BBBBBB",
"x. c #8CABD2",
"c. c #9AAFC9",
"v. c #94B3DA",
"b. c #98B7DF",
"n. c #9CB8DD",
"m. c #80AAE0",
"M. c #9AB9E0",
"N. c #ACB9CA",
"B. c #A4BAD4",
"V. c #A3BDDE",
"C. c #A9BFDB",
"Z. c #B2B9C3",
"A. c #B1BDCD",
"S. c #BABEC2",
"D. c #ACC1DC",
"F. c #BEC1C4",
"G. c #BCC2C9",
"H. c #B4C2D4",
"J. c #B3C5DE",
"K. c #BFC7D1",
"L. c #B8C6D9",
"P. c #BEC9D7",
"I. c #BAC9DC",
"U. c #A7C1E1",
"Y. c #ACC4E3",
"T. c #B6C8E0",
"R. c #BBCCE2",
"E. c #C2C3C3",
"W. c #C0C7CE",
"Q. c #CBCBCB",
"!. c #C3CAD3",
"~. c #C1CDDC",
"^. c #CBCED1",
"/. c #C7D1DF",
"(. c #CCD0D6",
"). c #C9D2DD",
"_. c #D2D2D2",
"`. c #DADADA",
"'. c #C9D3E0",
"]. c gray100",
"[. c None",
/* pixels */
"[.[.[.[.[.[.[.[.[.[.[.[.[.[.[.[.[.[.[.[.[.[.[.[.[.[.[.[.[.[.[.[.",
"[.[.[.  O e e q e } ..} } } ..} | ( ( ( ( J J J J J S , [.[.[.[.",
"[.[.[.  q E.F.E.E.E.E.Q.Q.Q._.Q.Q._._._._.`.`.`.`.`.a.l [.[.[.[.",
"[.[.[.  . # # # $ _ X.o.{ { { { { [ { { [ ^ Y ~ Y Y U v [.[.[.[.",
"[.[.[.    .       b 8.8.;.#.#.#.&.#.&.5.&.#.&.#.&.&.&.&.:.[.[.[.",
"[.[.[.    . .     x -.5.m.$.$.$.E K B N H k z A T %.&.&.&.[.[.[.",
"[.[.[.    X X     b $.;.8.4.K 8 6 p d 9.y.9.f a q $ - 2 & [.[.[.",
"[.[.[.    X X . . b $.&.3.O.p s.Q._._._.Q.G.z.j.j.f.r.e # [.[.[.",
"[.[.[.    o X   X b &.! > q.P._.Q._._.Q.j.Z.j.j.j.j.Q.g # [.[.[.",
"[.[.[.    O o   . n &.1 6 E.P._._._.Q.j.j.j.l.j.j.j.Q.g # [.[.[.",
"[.[.[.    O o . X n n z 0.Q.^.P.Q.Q.z.j.f.j.l.l.E.Q.Q.9.# [.[.[.",
"[.[.[.    + o   X n b 2 s.Q.Q.W.W.j.p 5 7 4 5 w 0.j.E.9.# [.[.[.",
"[.[.[.    + O   o n v > j.E.E.Q.Z.i.* W @.@.@.[ k @ 5 q # [.[.[.",
"[.[.[.    # O   o K v < s.E.E.z.h.g.f 6 3 @ % : k ! *.M # [.[.[.",
"[.[.[.  . # O . o K c M r.z.z.j.j.Z.k.j.z.f.w.d q ; ^ <.[.[.[.[.",
"[.[.[.  . # O . o K x Y p z.z.j.j.j.k.S.F.F.F.E.z.s.9 8 # [.[.[.",
"[.[.[.  . $ + . O D j ,.t r.j.j.j.z.l.l.S.z.z.z.E.z.z.a # [.[.[.",
"[.[.[.  X $ + . O D ' K =.4 0.j.z.F.z.S.z.S.z.z.z.z.Q.j.3 # [.[.",
"[.[.[.  . $ + X O D <.h W ;.V 9 9.s.z.z.E.E.z.z.z.z.Q.Q.d # [.[.",
"[.[.[.  X $ + X + D 1.Q , h c D 2 = & $ e e.l.S.z.z.Q.Q.9.# [.[.",
"[.[.[.  X 3 + X + D 1.V 6 0 u A D D D D < C p E.E.z.Q.Q.r.$ [.[.",
"[.[.[.  X $ + X + D ~ t w.f.g q 0 r y i t t 9.Q.Q.E.E.Q.0.# [.[.",
"[.[.[.  o 3 + X + K W F i.).^.^.k.g.e.9.w.f.Q.Q.Q.E.E.Q.a # [.[.",
"[.[.[.  O 3 + o # D ' G u.L.~.~.~.'.).).~.).).!.!.G.S.F.6 # [.[.",
"[.[.[.  O $ + o # K ' I t.J.Y.T.R.R.R.I.I.J.L.L.H.N.A.s # + [.[.",
"[.[.[.  O 3 + O $ L ] U +.n.V.U.Y.Y.Y.Y.Y.D.D.V.B.c.) 8 # [.[.[.",
"[.[.[.  O 3 + O # W E ' S F  .6.x.M.b.M.b.v.x.t._ M A *.[.[.[.[.",
"[.[.[.  + $ + O # ! ` @.] ` T L n v c c c z c D T =.<.2.[.[.[.[.",
"[.[.[.  o # o o + E &.&.&.-.-.-.>.>.>.&.-.-.,.-.,.<.,.2.[.[.[.[.",
"[.[.[.[.o O o X O T &.$.&.&.&.&.&.&.-.&.-.&.-.-.-.-.-.<.[.[.[.[.",
"[.[.[.  . o X . X n m m m m m m m m ` m R R R R ` ` E !     [.[.",
"[.                                                            [."
};
