/* XPM */
static char *sidux_manual[] = {
/* columns rows colors chars-per-pixel */
"32 32 158 2",
"   c #441010",
".  c #4E1313",
"X  c #541515",
"o  c #5C1616",
"O  c #631818",
"+  c #6B1B1B",
"@  c #761C1C",
"#  c #7D1D1D",
"$  c #6E2828",
"%  c #722727",
"&  c #7C2424",
"*  c #7D2B2B",
"=  c #7B3232",
"-  c #7F3A3A",
";  c #7F4243",
":  c #8A1414",
">  c #821C1C",
",  c #8D1D1D",
"<  c #941E1E",
"1  c #9B1D1D",
"2  c #A41B1B",
"3  c #A91D1D",
"4  c #842323",
"5  c #8C2222",
"6  c #922525",
"7  c #9E2323",
"8  c #942929",
"9  c #843736",
"0  c #8C3736",
"q  c #853C3C",
"w  c #913636",
"e  c #9B3131",
"r  c #9A3B3B",
"t  c #A12020",
"y  c #AA2323",
"u  c #A32B2B",
"i  c #AD2A29",
"p  c #B02E2E",
"a  c #B82D2C",
"s  c #A33535",
"d  c #A93232",
"f  c #A53C3B",
"g  c #AD3939",
"h  c #B23333",
"j  c #B93433",
"k  c #B53837",
"l  c #B63C3B",
"z  c #B93E3D",
"x  c #99403F",
"c  c #B9403F",
"v  c #8A4C4C",
"b  c #9C4B4B",
"n  c #855353",
"m  c #8D5252",
"M  c #AA4343",
"N  c #A84847",
"B  c #B44342",
"V  c #BB4443",
"C  c #BC4847",
"Z  c #B74C4C",
"A  c #BD4B4A",
"S  c #AF504F",
"D  c #AE5252",
"F  c #AA5E5E",
"G  c #B65151",
"H  c #BE5352",
"J  c #BA5C5C",
"K  c #8A6A6A",
"L  c #976666",
"P  c #916968",
"I  c #9A6B6B",
"U  c #937676",
"Y  c #9D7E7D",
"T  c #AC6060",
"R  c #AB6B6C",
"E  c #BB6464",
"W  c #B06C6C",
"Q  c #BE6A6A",
"!  c #BF7171",
"~  c #BD7A7A",
"^  c #C54847",
"/  c #C24F4E",
"(  c #C25453",
")  c #C85351",
"_  c #C35857",
"`  c #C35B5A",
"'  c #CA5F5D",
"]  c #C6605F",
"[  c #C9615F",
"{  c #C56463",
"}  c #CB6564",
"|  c #CD6866",
" . c #C56C6C",
".. c #CC6C6B",
"X. c #D46A67",
"o. c #D1716F",
"O. c #CB7373",
"+. c #CC7B7A",
"@. c #D17472",
"#. c #D37D7C",
"$. c #998787",
"%. c #A58383",
"&. c #AB8989",
"*. c #B98484",
"=. c #AD9998",
"-. c #ABA4A4",
";. c #B8A3A3",
":. c #BDAAAA",
">. c #BCBDBC",
",. c #CE8686",
"<. c #C08F8F",
"1. c #CE8A8A",
"2. c #D28484",
"3. c #D98380",
"4. c #D68887",
"5. c #D08F8F",
"6. c #D88C8B",
"7. c #C29291",
"8. c #D59393",
"9. c #DB9391",
"0. c #D79A9A",
"q. c #DC9B9B",
"w. c #D4A3A3",
"e. c #DCA3A3",
"r. c #DDADAD",
"t. c #C8BDBC",
"y. c #D1B4B4",
"u. c #D8BFBF",
"i. c #E1A5A5",
"p. c #E2ADAC",
"a. c #E3B4B4",
"s. c #E6B9B9",
"d. c #E8BDBC",
"f. c #E7C0BF",
"g. c #BEC0C0",
"h. c #C5C6C6",
"j. c #CEC6C6",
"k. c #C7C7C8",
"l. c #CBCBCB",
"z. c #D4D4D4",
"x. c #DBDBDB",
"c. c #E3C2C2",
"v. c #EAC4C3",
"b. c #ECCCCC",
"n. c #EED3D3",
"m. c #EEDEDE",
"M. c #F1D6D6",
"N. c #F3DCDC",
"B. c #E2E2E2",
"V. c #EEE7E7",
"C. c gray92",
"Z. c #F5E3E3",
"A. c #F6EAEA",
"S. c #F8ECEB",
"D. c #F3F3F3",
"F. c #F9F1F1",
"G. c #FEFEFE",
"H. c None",
/* pixels */
"H.H.H.H.H.H.H.H.H.H.H.H.H.H.H.H.H.H.H.H.H.H.H.H.H.H.H.H.H.H.H.H.",
"H.H.H.H.H.H.H.H.H.H.H.H.H.X.} } ` _ ( / A C V l k H.H.H.H.H.H.H.",
"H.H.H.4.o.@.@.o.o.#.#...| } v.@._ ( ( / C V z l k H.H.H.H.H.H.H.",
"H.H.f 8.X.......X.q.q.} } } d.i.} ( ' 2.s... .b.h H.H.H.H.H.H.H.",
"H.H.e Q ' | p.v.9.a.s.X.M.S.A.d.Z./ { N. .N.N.2.h u H.H.H.H.H.H.",
"H.H.8 N ) i.N.s.N.6.Z.i.v._ p.b.Z.( C Z.c 8.F.J p i H.H.H.H.H.H.",
"H.H.5 M ^ 4.Z.Z.b...Z.p.v.( 2.Z.v.0.A S./ n.e.Z.A i H.H.H.H.H.H.",
"H.H.5 | ) } d.@.M.p.M.#.N.M.Z.S.| N.A.N.+.p.p {  .y H.H.H.H.H.H.",
"H.H.4 X.} / p.Z.b._ 8.O.C O.{ ` C C A B V B z h i y H.H.H.H.H.H.",
"H.H.@ _ #.( ` H H _ ` _ H C V c z l k h h i i y y 3 1 H.H.H.H.H.",
"H.H.+ M 5.C ^ C C C C V V V V 0.r.e.e.B p p y y 3 3 1 H.H.H.H.H.",
"H.H.o f E z V V V V c c z _ s._ k h l d.H n.G.e.3 2 2 H.H.H.H.H.",
"H.H.X e M k z z z z r.v.+.Z.s.a.s.b.Z.G.G.G.G.G.0.2 2 H.H.H.H.H.",
"H.H.  8 8 a k k k O.a.` G.G.G.G.G.G.n.5.` s.F. .g d 1 H.H.H.H.H.",
"H.H.H.6 s j h h h p.H b.G.G.a. .C i y 3 2 2 2 2 2 1 1 H.H.H.H.H.",
"H.H.H.5 @./ p p p e.2.G.G.F.p y y 3 3 2 2 2 2 2 1 1 1 < H.H.H.H.",
"H.H.H.5 X.{ p i p y.v.G.G.4.y y 3 2 2 2 1 1 2 1 1 1 < < H.H.H.H.",
"H.H.H.# _ ,.y i q.G.G.G.e.y 2 h ` 1.r.e.,.Q u 1 1 < < < H.H.H.H.",
"H.H.H.+ B J 3 q.+.G.G.O.2 O.A.G.G.G.G.G.G.G.G.r.D < < , H.H.H.H.",
"H.H.H.O f f 3 c.B G.G.{ n.G.Z.5.J g t u M ! c.G.G.w.8 5 H.H.H.H.",
"H.H.H.o e 6 A O.Z G.G.G.A. .7 1 1 1 1 1 < < < f c.G.m.r > H.H.H.",
"H.H.H.. 8 : } G g G.G.b.d 1 1 1 1 1 1 < < < < < , ~ G.m.w H.H.H.",
"H.H.H.H.5 f O.E w.G.c.7 1 1 1 < < < < < < < , 5 5 5 W y.*.H.H.H.",
"H.H.H.H.5 3.,.G.G.S.s 7 1 < < 7 < : > > & * 9 n P Y =.t.H.H.H.H.",
"H.H.H.H.5 X.~ T =.N # * = ; n K $.-.>.g.h.k.z.x.x.B.B.D.H.H.H.H.",
"H.H.H.H.4 _ U -.g.g.k.l.l.k.k.l.l.l.l.l.l.z.x.x.B.B.C.V.H.H.H.H.",
"H.H.H.H.@ S l.x.B.B.m.x.x.z.z.l.l.k.l.z.z.x.B.B.B.B.C.u.H.H.H.H.",
"H.H.H.H.+ F x.B.x.x.z.z.z.l.k.k.h.k.k.k.h.k.l.z.x.B.B.7.H.H.H.H.",
"H.H.H.H.O R x.z.x.z.z.z.l.z.x.x.m.x.k.:.&.I m q 9 9 0 b H.H.H.H.",
"H.H.H.H.X R x.x.x.j.;.%.L v v = $ + O o X H.H.H.H.H.H.H.H.H.H.H.",
"H.H.H.H.H.4 9 $ + o X H.H.H.H.H.H.H.H.H.H.H.H.H.H.H.H.H.H.H.H.H.",
"H.H.H.H.H.H.H.H.H.H.H.H.H.H.H.H.H.H.H.H.H.H.H.H.H.H.H.H.H.H.H.H."
};
