/* XPM */
static char *sidux-manual-16[] = {
/* columns rows colors chars-per-pixel */
"16 16 197 2",
"   c black",
".  c #040404",
"X  c gray2",
"o  c #070707",
"O  c #090909",
"+  c gray5",
"@  c #101010",
"#  c #131313",
"$  c #151515",
"%  c #161616",
"&  c #181818",
"*  c gray10",
"=  c #1B1B1B",
"-  c #1D1D1D",
";  c gray12",
":  c gray13",
">  c #232323",
",  c #252525",
"<  c gray15",
"1  c #272727",
"2  c #2D2D2D",
"3  c #313131",
"4  c #313233",
"5  c gray20",
"6  c #343434",
"7  c gray21",
"8  c gray22",
"9  c #3A3A3A",
"0  c gray23",
"q  c #3E3E3E",
"w  c #213550",
"e  c #233853",
"r  c #293D59",
"t  c #353A41",
"y  c #2D415B",
"u  c #2D435E",
"i  c #324763",
"p  c #374C68",
"a  c #3C506C",
"s  c #385275",
"d  c #3D5371",
"f  c #3E5370",
"g  c #3B577E",
"h  c gray25",
"j  c #414141",
"k  c #484848",
"l  c gray30",
"z  c #4E4E4E",
"x  c gray31",
"c  c #425774",
"v  c #425978",
"b  c #455C7D",
"n  c #4D5D73",
"m  c #525961",
"M  c #58626F",
"N  c #5B636D",
"B  c #5C6675",
"V  c #5F6C7C",
"C  c gray38",
"Z  c gray42",
"A  c #646C76",
"S  c #676E76",
"D  c gray46",
"F  c #7C7D7E",
"G  c #3E5F8C",
"H  c #3E6598",
"J  c #435E81",
"K  c #475E80",
"L  c #446187",
"P  c #40618C",
"I  c #46628A",
"U  c #45638C",
"Y  c #4B658A",
"T  c #446B9A",
"R  c #58769B",
"E  c #5A779B",
"W  c #5D789A",
"Q  c #5E799B",
"!  c #426BA0",
"~  c #426BA2",
"^  c #4472AD",
"/  c #4E71A1",
"(  c #4976AF",
")  c #4674B2",
"_  c #4576B7",
"`  c #4577B6",
"'  c #4778BB",
"]  c #4779BC",
"[  c #4779BD",
"{  c #4D78B2",
"}  c #487ABD",
"|  c #487BBF",
" . c #497BBE",
".. c #4D7DBE",
"X. c #5075A6",
"o. c #5076A7",
"O. c #557CAF",
"+. c #507CB6",
"@. c #617999",
"#. c #617B99",
"$. c #637B9A",
"%. c #647C99",
"&. c #467BC0",
"*. c #457DC4",
"=. c #4A7EC2",
"-. c #4E7FC0",
";. c #7D838F",
":. c #728091",
">. c #678BB9",
",. c #6888B3",
"<. c #7192BD",
"1. c #7993B4",
"2. c #7994B4",
"3. c #7895B7",
"4. c #7994B7",
"5. c #7A94B6",
"6. c #7A94B7",
"7. c #7A97BA",
"8. c #7C95B8",
"9. c #4787D9",
"0. c #4984D0",
"q. c #4E8BDB",
"w. c #4C8BDC",
"e. c #4C8BDD",
"r. c #4D8CDD",
"t. c #4E8CDE",
"y. c #4F8DDE",
"u. c #5386CB",
"i. c #508DDE",
"p. c #5A92DB",
"a. c #528FE0",
"s. c #5390E1",
"d. c #5692E2",
"f. c #6C93C2",
"g. c #679BDC",
"h. c #7194C0",
"j. c #80858D",
"k. c #898B8D",
"l. c #8C8C8D",
"z. c #8C8D8D",
"x. c #8D8F91",
"c. c #999A9A",
"v. c #9C9D9D",
"b. c #9DA0A2",
"n. c #A0A1A2",
"m. c #A6A7A9",
"M. c #A6A8AB",
"N. c #A8AAAB",
"B. c #AAABAB",
"V. c #AAADAF",
"C. c #ACACAD",
"Z. c #ACADAE",
"A. c #ACADAF",
"S. c #A9AFB6",
"D. c #ADB2B8",
"F. c #B0B0B1",
"G. c #B6B6B6",
"H. c #B5B6B8",
"J. c #B6B7B8",
"K. c #B6B8BA",
"L. c #B6B9BD",
"P. c #B7B9BC",
"I. c gray72",
"U. c gray73",
"Y. c #B9BBBD",
"T. c #BABBBC",
"R. c #BCBCBC",
"E. c #BDBDBE",
"W. c #BCBEBF",
"Q. c #BDBEBF",
"!. c #BEBEBF",
"~. c #BEBFBF",
"^. c #94ABC9",
"/. c #AEB7C3",
"(. c #A8B9CF",
"). c #B3B9C1",
"_. c #BABFC6",
"`. c #ABC1DD",
"'. c #BDC5CE",
"]. c #B0C2D9",
"[. c #B4C7DF",
"{. c #B1C6E1",
"}. c #B4C8E2",
"|. c gray76",
" X c #C3C3C4",
".X c #C3C6C7",
"XX c gray78",
"oX c #C6C8CC",
"OX c #CACACA",
"+X c gray80",
"@X c #C4C9D0",
"#X c #C7CCD1",
"$X c #C4CCD6",
"%X c #C8CDD2",
"&X c #D0D0D0",
"*X c gray100",
"=X c None",
/* pixels */
"=X=Xq l B %.$.$.$.W Q E E T =X=X",
"=X  h D ;.7.3.3.3.3.5.1.1.X.=X=X",
"=X  . . w g.p.9.*.+.( _ 0.e.e.=X",
"=X  O + e q.f.A v.A.D.n.l.N t =X",
"=X  @ @ r ` j.#X&XXXK.J.G.m.4 =X",
"=X  % & u H R.@X.Xc.k.b.!.m.6 =X",
"=X  - - i P ~.|.S.m a G g n 6 =X",
"=X  < : p ~ B.I.J.K.!.A.x.Y h =X",
"=X  2 < a [ V F.I.K.Y.R.W.N.0 =X",
"=X  4 1 d -.~ L S x.V.W.U.+XC =X",
"=X  8 < c / F N b U K A.XXXXZ =X",
"=X  h ; v { /.#X'.)._.%XoX.Xl =X",
"=X  k & J ..^.`.{.}.[.].(.:.8 =X",
"=X  l % U [ ^ +.>.h.<.,.X.u.=X=X",
"=X  4 O s e.q.q.q.a.q.s.s.d.=X=X",
"=X=X- . u &.[ [ [ [  . .=.)   =X"
};
