/* XPM */
static char *sidux_manual[] = {
/* columns rows colors chars-per-pixel */
"32 32 162 2",
"   c #441010",
".  c #4E1313",
"X  c #541515",
"o  c #5C1616",
"O  c #631818",
"+  c #6A1B1B",
"@  c #741C1C",
"#  c #7C1D1D",
"$  c #6E2828",
"%  c #722727",
"&  c #7C2121",
"*  c #7C2A2A",
"=  c #7A3232",
"-  c #7D3B3A",
";  c #7E4444",
":  c #8A1515",
">  c #821C1C",
",  c #8D1C1C",
"<  c #951F1F",
"1  c #9B1D1D",
"2  c #A41C1C",
"3  c #A91E1E",
"4  c #832222",
"5  c #8C2121",
"6  c #912323",
"7  c #9E2323",
"8  c #932A2A",
"9  c #982928",
"0  c #863635",
"q  c #8C3737",
"w  c #833837",
"e  c #843C3B",
"r  c #913636",
"t  c #9B3131",
"y  c #983C3C",
"u  c #A32424",
"i  c #AB2424",
"p  c #AD2827",
"a  c #A12C2C",
"s  c #AE2C2B",
"d  c #B12D2D",
"f  c #A33535",
"g  c #A83232",
"h  c #A43C3B",
"j  c #AB3939",
"k  c #B33433",
"l  c #B93332",
"z  c #B43837",
"x  c #B63B3B",
"c  c #B83E3D",
"v  c #9A423F",
"b  c #B9403F",
"n  c #874040",
"m  c #8A4C4C",
"M  c #9C4B4B",
"N  c #845453",
"B  c #8E5252",
"V  c #A94544",
"C  c #B44443",
"Z  c #BB4443",
"A  c #BD4847",
"S  c #B64D4D",
"D  c #BD4B4A",
"F  c #AF5252",
"G  c #AA5E5E",
"H  c #B65252",
"J  c #BD5252",
"K  c #BC5C5C",
"L  c #8B6B6B",
"P  c #976666",
"I  c #916A68",
"U  c #9B6C6C",
"Y  c #947778",
"T  c #9D7E7D",
"R  c #AC6161",
"E  c #AB6C6C",
"W  c #BB6464",
"Q  c #B06C6C",
"!  c #BD6B6A",
"~  c #BE7272",
"^  c #BB7B7B",
"/  c #C54745",
"(  c #C04847",
")  c #C24E4D",
"_  c #C1514F",
"`  c #C25554",
"'  c #C25857",
"]  c #C35A59",
"[  c #C95D5C",
"{  c #C3605F",
"}  c #CA615F",
"|  c #C56464",
" . c #CA6463",
".. c #CD6866",
"X. c #C56C6C",
"o. c #CC6B69",
"O. c #D56A67",
"+. c #D16D6B",
"@. c #CD716F",
"#. c #D1706E",
"$. c #CB7474",
"%. c #CC7A7A",
"&. c #D17774",
"*. c #D17D7C",
"=. c #9B8888",
"-. c #A58383",
";. c #AB8A8A",
":. c #B98484",
">. c #BF8F8F",
",. c #AD9A98",
"<. c #ABA4A4",
"1. c #B8A3A3",
"2. c #BCAAAA",
"3. c #BDBEBE",
"4. c #CD8787",
"5. c #CF8E8E",
"6. c #D38483",
"7. c #D98380",
"8. c #D88887",
"9. c #D38888",
"0. c #D98C8B",
"q. c #C29391",
"w. c #D39393",
"e. c #D99492",
"r. c #D79999",
"t. c #DB9D9C",
"y. c #D4A3A3",
"u. c #DCA3A3",
"i. c #DEABAA",
"p. c #C9BEBC",
"a. c #D1B4B4",
"s. c #DAB0B0",
"d. c #E0A7A6",
"f. c #E0A8A7",
"g. c #E1AEAD",
"h. c #E3B4B4",
"j. c #E6BBBB",
"k. c #E9BEBD",
"l. c #D8C0BF",
"z. c #C6C6C6",
"x. c #CDC5C5",
"c. c #CBCBCB",
"v. c #D4D4D4",
"b. c #DBDBDB",
"n. c #E3C2C2",
"m. c #EAC5C4",
"M. c #ECCDCC",
"N. c #EED0CF",
"B. c #EED2D2",
"V. c #EEDEDE",
"C. c #F0D5D5",
"Z. c #F3DCDC",
"A. c #E2E2E2",
"S. c #EEE7E7",
"D. c #EAEAEA",
"F. c #F5E3E3",
"G. c #F6EAEA",
"H. c #F9ECEC",
"J. c #F3F3F3",
"K. c #FAF1F0",
"L. c #FEFEFE",
"P. c None",
/* pixels */
"P.P.P.P.P.P.P.P.P.P.P.P.P.P.P.P.P.P.P.P.P.P.P.P.P.P.P.P.P.P.P.P.",
"P.P.P.P.P.P.P.P.P.P.P.P.P. .} [ ] ` _ ) Z Z c x k P.P.P.P.P.P.P.",
"P.P.P.9.#.#.#.+.#.0.8.O. .} M.*.` ` ) ( Z Z c x k P.P.P.P.P.P.P.",
"P.P.h w.O.o.o.o...6.0.} } o.k.f.e._  .u.j.*.%.C.k P.P.P.P.P.P.P.",
"P.P.t ! [ o.h.m.e.k.M.@.Z.F.H.j.F.( ] Z.] F.F.$.s p P.P.P.P.P.P.",
"P.P.8 V _ d.Z.t.C.&.G.d.j.` u.B.F.' Z F.c e.K.| s i P.P.P.P.P.P.",
"P.P.6 V / *.F.F.C.o.F.u.m._ 6.F.g.j.$.K.' Z.9.Z.{ i P.P.P.P.P.P.",
"P.P.6 o.) ..m.#.C.f.N.7.N.F.F.G.` j.C.g.X.r.p S H i P.P.P.P.P.P.",
"P.P.4 +.} _ f.Z.m.J %. .D { ' D D C C c c c z d i 3 P.P.P.P.P.P.",
"P.P.@ ` *._ ` ` J ' ] ' ) Z b c x z k k d s i i 3 3 1 P.P.P.P.P.",
"P.P.+ C 5.Z A A A Z Z b b c Z r.i.u.u.c s s i 3 3 2 1 P.P.P.P.P.",
"P.P.o h W c b b b b c b c ' h.J k d z j.H B.L.u.2 2 1 P.P.P.P.P.",
"P.P.X t V l x x x x f.m.%.G.h.h.h.M.F.L.L.L.L.L.r.2 1 P.P.P.P.P.",
"P.P.  8 9 d l z l $.g.' L.L.L.L.L.L.B.0.K h.H.X.j g 1 P.P.P.P.P.",
"P.P.P.8 f l k d d i.J M.L.L.g.X.Z i 3 3 2 2 3 1 1 1 1 P.P.P.P.P.",
"P.P.P.5 &.( d d s u.4.L.L.K.s i u 2 2 2 2 2 1 2 1 1 1 < P.P.P.P.",
"P.P.P.4 O.| p p p h.m.L.L.6.3 3 2 2 3 2 2 1 1 1 1 < 6 < P.P.P.P.",
"P.P.P.# ` 4.i i t.L.L.L.u.3 2 j ] 4.i.y.4.! a 7 1 < < 5 P.P.P.P.",
"P.P.P.@ C W 2 t.%.L.L.X.3 X.F.L.L.L.L.L.L.L.L.s.F < 5 , P.P.P.P.",
"P.P.P.O h h 3 j.C L.L.W B.L.G.5.K j 7 a V $.a.L.L.y.8 5 P.P.P.P.",
"P.P.P.o t 9 A %.S L.L.L.G.X.7 1 1 1 1 < < < < h n.L.V.y > P.P.P.",
"P.P.P.. 8 : | H j L.L.M.f 1 1 1 1 < < < < < 6 , 4 ^ L.V.r P.P.P.",
"P.P.P.P.5 h $.W y.L.n.9 1 1 1 < < < < < < , 5 5 4 , E a.:.P.P.P.",
"P.P.P.P.5 7.4.L.L.K.f 1 < < < 6 , , # # # * - N I T ,.l.P.P.P.P.",
"P.P.P.P.5 O.^ R >.M # * = ; N L =.<.3.z.z.c.v.b.b.A.D.J.P.P.P.P.",
"P.P.P.P.4 ` Y <.3.z.z.z.c.c.c.c.z.c.c.c.v.v.v.A.A.D.D.S.P.P.P.P.",
"P.P.P.P.@ F c.b.A.A.A.b.v.v.v.c.c.c.c.c.v.b.b.A.A.A.D.l.P.P.P.P.",
"P.P.P.P.+ G b.A.b.b.b.v.v.c.c.z.z.z.c.z.z.z.c.v.b.A.A.q.P.P.P.P.",
"P.P.P.P.O E b.b.b.v.v.v.v.v.b.b.b.b.c.a.;.U B n e 0 q v P.P.P.P.",
"P.P.P.P.X E b.b.b.x.1.-.P m n = % + O X X P.P.P.P.P.P.P.P.P.P.P.",
"P.P.P.P.P.4 0 $ + o X P.P.P.P.P.P.P.P.P.P.P.P.P.P.P.P.P.P.P.P.P.",
"P.P.P.P.P.P.P.P.P.P.P.P.P.P.P.P.P.P.P.P.P.P.P.P.P.P.P.P.P.P.P.P."
};
